<svg xmlns="http://www.w3.org/2000/svg" viewBox="0 0 373.12 370">
  <defs>
    <style>
      .cls-1, .cls-17, .cls-2, .cls-20, .cls-22, .cls-24, .cls-26, .cls-27, .cls-9 {
        fill: none;
        stroke-miterlimit: 10;
      }

      .cls-1 {
        stroke: #bbe5ff;
      }

      .cls-1, .cls-9 {
        stroke-linecap: round;
      }

      .cls-1, .cls-17, .cls-2, .cls-20, .cls-22, .cls-24, .cls-26, .cls-9 {
        stroke-width: 1px;
      }

      .cls-2, .cls-9 {
        stroke: #8ab7ce;
      }

      .cls-3 {
        fill: #d7e8f2;
      }

      .cls-4 {
        fill: #a3caef;
      }

      .cls-5 {
        fill: #4e6d84;
      }

      .cls-6 {
        fill: #66e29e;
      }

      .cls-7 {
        fill: #80aeff;
      }

      .cls-8 {
        fill: #b3d6ff;
      }

      .cls-10 {
        fill: #6e89a0;
      }

      .cls-11 {
        fill: #85aed6;
      }

      .cls-12 {
        fill: #96c1ea;
      }

      .cls-13 {
        opacity: 0.85;
      }

      .cls-14 {
        fill: #96a8ea;
      }

      .cls-15 {
        fill: #c0e0fc;
      }

      .cls-16 {
        fill: #958ed6;
      }

      .cls-17 {
        stroke: #958ed6;
      }

      .cls-18 {
        fill: #e1f4ff;
      }

      .cls-19 {
        fill: #679af4;
      }

      .cls-20 {
        stroke: #80aeff;
      }

      .cls-21 {
        fill: #f79b48;
      }

      .cls-22 {
        stroke: #f79b48;
      }

      .cls-23 {
        fill: #f78c57;
      }

      .cls-24 {
        stroke: #f78c57;
      }

      .cls-25 {
        fill: #f9bf3e;
      }

      .cls-26 {
        stroke: #f9bf3e;
      }

      .cls-27 {
        stroke: #96c1ea;
        stroke-width: 1.33px;
      }
    </style>
  </defs>
  <title>Asset 1</title>
  <g id="Layer_2" data-name="Layer 2">
    <g id="OBJECTS">
      <g>
        <g>
          <line class="cls-1" x1="131.13" y1="316.31" x2="131.13" y2="5.78"/>
          <line class="cls-1" x1="53.6" y1="235.44" x2="53.6" y2="69.31"/>
          <line class="cls-1" x1="148.54" y1="274.81" x2="148.54" y2="28.34"/>
          <line class="cls-1" x1="222.62" y1="274.81" x2="222.62" y2="30.98"/>
          <line class="cls-1" x1="294.67" y1="322.08" x2="294.67" y2="36.75"/>
          <circle class="cls-1" cx="53.6" cy="66.67" r="2.64"/>
          <circle class="cls-1" cx="131.13" cy="3.14" r="2.64"/>
          <circle class="cls-1" cx="148.54" cy="25.7" r="2.64"/>
          <circle class="cls-1" cx="294.67" cy="33.62" r="2.64"/>
          <g>
            <line class="cls-1" x1="328.69" y1="163.21" x2="328.69" y2="55.81"/>
            <circle class="cls-1" cx="328.69" cy="52.76" r="2.64"/>
          </g>
          <g>
            <line class="cls-1" x1="369.98" y1="274.71" x2="369.98" y2="125.61"/>
            <circle class="cls-1" cx="369.98" cy="122.56" r="2.64"/>
          </g>
          <g>
            <line class="cls-1" x1="15.42" y1="267.63" x2="15.42" y2="118.53"/>
            <circle class="cls-1" cx="15.42" cy="115.48" r="2.64"/>
          </g>
          <circle class="cls-1" cx="222.62" cy="28.34" r="2.64"/>
        </g>
        <g>
          <path class="cls-2" id="gearIcon-1" d="M354.22,173.06V142.62a5.21,5.21,0,0,0-4.87-5.2l-13.49-.88a80.61,80.61,0,0,0-7.88-19l8.92-10.17a5.21,5.21,0,0,0-.23-7.12L315.14,78.73A5.21,5.21,0,0,0,308,78.5l-10.17,8.92a80.6,80.6,0,0,0-19-7.88L278,66.05a5.21,5.21,0,0,0-5.2-4.87H242.34a5.21,5.21,0,0,0-5.2,4.87l-.88,13.49a80.61,80.61,0,0,0-19,7.88L207.1,78.5a5.21,5.21,0,0,0-7.12.23l-21.53,21.53a5.21,5.21,0,0,0-.23,7.12l8.92,10.17a80.61,80.61,0,0,0-7.88,19l-13.49.88a5.21,5.21,0,0,0-4.87,5.2v30.44a5.21,5.21,0,0,0,4.87,5.2l13.49.88a80.61,80.61,0,0,0,7.88,19l-8.92,10.17a5.21,5.21,0,0,0,.23,7.12L200,236.95a5.21,5.21,0,0,0,7.12.23l10.17-8.92a80.61,80.61,0,0,0,19,7.88l.88,13.49a5.21,5.21,0,0,0,5.2,4.87h30.44a5.21,5.21,0,0,0,5.2-4.87l.88-13.49a80.6,80.6,0,0,0,19-7.88L308,237.18a5.21,5.21,0,0,0,7.12-.23l21.53-21.53a5.21,5.21,0,0,0,.23-7.12L328,198.13a80.61,80.61,0,0,0,7.88-19l13.49-.88A5.21,5.21,0,0,0,354.22,173.06Zm-91.76,32.53a48,48,0,1,1,42.86-42.86A48,48,0,0,1,262.46,205.59Z"/>
          <path class="cls-2" id="gearIcon-2" d="M157.21,211.06V190.27a3.56,3.56,0,0,0-3.33-3.55l-9.21-.6a55.06,55.06,0,0,0-5.38-13l6.1-6.95a3.56,3.56,0,0,0-.16-4.86l-14.7-14.7a3.56,3.56,0,0,0-4.86-.16l-6.95,6.1a55,55,0,0,0-13-5.38l-.6-9.21a3.56,3.56,0,0,0-3.55-3.33H80.8A3.56,3.56,0,0,0,77.25,138l-.6,9.21a55.05,55.05,0,0,0-13,5.38l-6.95-6.1a3.56,3.56,0,0,0-4.86.16l-14.7,14.7A3.56,3.56,0,0,0,37,166.2l6.1,6.95a55.06,55.06,0,0,0-5.38,13l-9.21.6a3.56,3.56,0,0,0-3.33,3.55v20.79a3.56,3.56,0,0,0,3.33,3.55l9.21.6a55.06,55.06,0,0,0,5.38,13L37,235.13a3.56,3.56,0,0,0,.16,4.86l14.7,14.7a3.56,3.56,0,0,0,4.86.16l6.95-6.1a55.06,55.06,0,0,0,13,5.38l.6,9.21a3.56,3.56,0,0,0,3.55,3.33h20.79a3.56,3.56,0,0,0,3.55-3.33l.6-9.21a55.05,55.05,0,0,0,13-5.38l6.95,6.1a3.56,3.56,0,0,0,4.86-.16l14.7-14.7a3.56,3.56,0,0,0,.16-4.86l-6.1-6.95a55.06,55.06,0,0,0,5.38-13l9.21-.6A3.56,3.56,0,0,0,157.21,211.06ZM94.54,233.28A32.79,32.79,0,1,1,123.81,204,32.79,32.79,0,0,1,94.54,233.28Z"/>
        </g>
        <polygon class="cls-3" points="360.66 370 15.42 370 82.65 317.64 293.43 317.64 360.66 370"/>
        <g>
          <rect class="cls-4" x="82.65" y="163.21" width="210.78" height="122.48"/>
          <g>
            <g>
              <rect class="cls-5" x="88.86" y="166.82" width="198.36" height="115.26"/>
              <g>
                <g>
                  <path class="cls-6" d="M145.59,191.89H101.1a1.66,1.66,0,0,1-1.65-1.65h0a1.66,1.66,0,0,1,1.65-1.65h44.49a1.66,1.66,0,0,1,1.65,1.65h0A1.66,1.66,0,0,1,145.59,191.89Z"/>
                  <path class="cls-6" d="M197.92,191.89H153.44a1.66,1.66,0,0,1-1.65-1.65h0a1.66,1.66,0,0,1,1.65-1.65h44.49a1.66,1.66,0,0,1,1.65,1.65h0A1.66,1.66,0,0,1,197.92,191.89Z"/>
                  <path class="cls-7" d="M219,191.89h-12.2a1.66,1.66,0,0,1-1.65-1.65h0a1.66,1.66,0,0,1,1.65-1.65H219a1.66,1.66,0,0,1,1.65,1.65h0A1.66,1.66,0,0,1,219,191.89Z"/>
                </g>
                <g>
                  <path class="cls-6" d="M159.87,223.19H101.1a1.66,1.66,0,0,1-1.65-1.65h0a1.66,1.66,0,0,1,1.65-1.65h58.77a1.66,1.66,0,0,1,1.65,1.65h0A1.66,1.66,0,0,1,159.87,223.19Z"/>
                  <path class="cls-7" d="M203.91,223.19h-35a1.66,1.66,0,0,1-1.65-1.65h0a1.66,1.66,0,0,1,1.65-1.65h35a1.66,1.66,0,0,1,1.65,1.65h0A1.66,1.66,0,0,1,203.91,223.19Z"/>
                </g>
                <g>
                  <path class="cls-7" d="M122.6,202.32H101.1a1.66,1.66,0,0,1-1.65-1.65h0A1.66,1.66,0,0,1,101.1,199h21.5a1.66,1.66,0,0,1,1.65,1.65h0A1.66,1.66,0,0,1,122.6,202.32Z"/>
                  <path class="cls-6" d="M166.64,202.32h-38a1.66,1.66,0,0,1-1.65-1.65h0a1.66,1.66,0,0,1,1.65-1.65h38a1.66,1.66,0,0,1,1.65,1.65h0A1.66,1.66,0,0,1,166.64,202.32Z"/>
                </g>
                <g>
                  <path class="cls-6" d="M140.29,181.45H101.1a1.66,1.66,0,0,1-1.65-1.65h0a1.66,1.66,0,0,1,1.65-1.65h39.19a1.66,1.66,0,0,1,1.65,1.65h0A1.66,1.66,0,0,1,140.29,181.45Z"/>
                  <path class="cls-7" d="M239.86,181.45H148.53a1.66,1.66,0,0,1-1.65-1.65h0a1.66,1.66,0,0,1,1.65-1.65h91.33a1.66,1.66,0,0,1,1.65,1.65h0A1.66,1.66,0,0,1,239.86,181.45Z"/>
                </g>
                <g>
                  <path class="cls-7" d="M219,212.76H199.48a1.66,1.66,0,0,1-1.65-1.65h0a1.66,1.66,0,0,1,1.65-1.65H219a1.66,1.66,0,0,1,1.65,1.65h0A1.66,1.66,0,0,1,219,212.76Z"/>
                  <path class="cls-6" d="M192.43,212.76H101.1a1.66,1.66,0,0,1-1.65-1.65h0a1.66,1.66,0,0,1,1.65-1.65h91.33a1.66,1.66,0,0,1,1.65,1.65h0A1.66,1.66,0,0,1,192.43,212.76Z"/>
                </g>
                <g>
                  <path class="cls-6" d="M145.59,244.06H101.1a1.66,1.66,0,0,1-1.65-1.65h0a1.66,1.66,0,0,1,1.65-1.65h44.49a1.66,1.66,0,0,1,1.65,1.65h0A1.66,1.66,0,0,1,145.59,244.06Z"/>
                  <path class="cls-6" d="M197.92,244.06H153.44a1.66,1.66,0,0,1-1.65-1.65h0a1.66,1.66,0,0,1,1.65-1.65h44.49a1.66,1.66,0,0,1,1.65,1.65h0A1.66,1.66,0,0,1,197.92,244.06Z"/>
                  <path class="cls-7" d="M219,244.06h-12.2a1.66,1.66,0,0,1-1.65-1.65h0a1.66,1.66,0,0,1,1.65-1.65H219a1.66,1.66,0,0,1,1.65,1.65h0A1.66,1.66,0,0,1,219,244.06Z"/>
                </g>
                <g>
                  <path class="cls-6" d="M159.87,275.36H101.1a1.66,1.66,0,0,1-1.65-1.65h0a1.66,1.66,0,0,1,1.65-1.65h58.77a1.66,1.66,0,0,1,1.65,1.65h0A1.66,1.66,0,0,1,159.87,275.36Z"/>
                  <path class="cls-7" d="M203.91,275.36h-35a1.66,1.66,0,0,1-1.65-1.65h0a1.66,1.66,0,0,1,1.65-1.65h35a1.66,1.66,0,0,1,1.65,1.65h0A1.66,1.66,0,0,1,203.91,275.36Z"/>
                </g>
                <g>
                  <path class="cls-7" d="M122.6,254.49H101.1a1.66,1.66,0,0,1-1.65-1.65h0a1.66,1.66,0,0,1,1.65-1.65h21.5a1.66,1.66,0,0,1,1.65,1.65h0A1.66,1.66,0,0,1,122.6,254.49Z"/>
                  <path class="cls-6" d="M166.64,254.49h-38a1.66,1.66,0,0,1-1.65-1.65h0a1.66,1.66,0,0,1,1.65-1.65h38a1.66,1.66,0,0,1,1.65,1.65h0A1.66,1.66,0,0,1,166.64,254.49Z"/>
                </g>
                <g>
                  <path class="cls-6" d="M140.29,233.63H101.1A1.66,1.66,0,0,1,99.45,232h0a1.66,1.66,0,0,1,1.65-1.65h39.19a1.66,1.66,0,0,1,1.65,1.65h0A1.66,1.66,0,0,1,140.29,233.63Z"/>
                  <rect class="cls-7" x="146.88" y="230.32" width="85.43" height="3.31" rx="1.57" ry="1.57"/>
                </g>
                <g>
                  <path class="cls-7" d="M219,264.93H199.48a1.66,1.66,0,0,1-1.65-1.65h0a1.66,1.66,0,0,1,1.65-1.65H219a1.66,1.66,0,0,1,1.65,1.65h0A1.66,1.66,0,0,1,219,264.93Z"/>
                  <path class="cls-6" d="M192.43,264.93H101.1a1.66,1.66,0,0,1-1.65-1.65h0a1.66,1.66,0,0,1,1.65-1.65h91.33a1.66,1.66,0,0,1,1.65,1.65h0A1.66,1.66,0,0,1,192.43,264.93Z"/>
                </g>
              </g>
            </g>
            <polygon class="cls-8" points="360.66 338.05 15.42 338.05 82.65 285.69 293.43 285.69 360.66 338.05"/>
            <g>
              <polygon class="cls-10" points="104.16 290.59 92.69 290.59 96.87 287.31 107.84 287.31 104.16 290.59"/>
              <polygon class="cls-10" points="97.61 296.7 84.9 296.7 89.78 292.87 101.89 292.87 97.61 296.7"/>
              <polygon class="cls-10" points="116.96 296.7 104.26 296.7 108.22 292.87 120.33 292.87 116.96 296.7"/>
              <polygon class="cls-10" points="136.32 296.7 123.62 296.7 126.67 292.87 138.77 292.87 136.32 296.7"/>
              <polygon class="cls-10" points="155.68 296.7 142.97 296.7 145.11 292.87 157.21 292.87 155.68 296.7"/>
              <polygon class="cls-10" points="175.03 296.7 162.33 296.7 163.55 292.87 175.65 292.87 175.03 296.7"/>
              <polygon class="cls-10" points="194.39 296.7 181.69 296.7 181.99 292.87 194.09 292.87 194.39 296.7"/>
              <polygon class="cls-10" points="213.75 296.7 201.04 296.7 200.43 292.87 212.53 292.87 213.75 296.7"/>
              <polygon class="cls-10" points="233.1 296.7 220.4 296.7 218.87 292.87 230.97 292.87 233.1 296.7"/>
              <polygon class="cls-10" points="252.46 296.7 239.76 296.7 237.31 292.87 249.41 292.87 252.46 296.7"/>
              <polygon class="cls-10" points="271.82 296.7 259.12 296.7 255.75 292.87 267.85 292.87 271.82 296.7"/>
              <polygon class="cls-10" points="291.18 296.7 278.47 296.7 274.19 292.87 286.3 292.87 291.18 296.7"/>
              <polygon class="cls-10" points="90.45 303.11 76.74 303.11 82.41 298.66 95.42 298.66 90.45 303.11"/>
              <polygon class="cls-10" points="111.34 303.11 97.63 303.11 102.23 298.66 115.24 298.66 111.34 303.11"/>
              <polygon class="cls-10" points="132.23 303.11 118.52 303.11 122.06 298.66 135.07 298.66 132.23 303.11"/>
              <polygon class="cls-10" points="153.12 303.11 139.41 303.11 141.88 298.66 154.89 298.66 153.12 303.11"/>
              <polygon class="cls-10" points="174 303.11 160.3 303.11 161.71 298.66 174.72 298.66 174 303.11"/>
              <polygon class="cls-10" points="194.89 303.11 181.19 303.11 181.53 298.66 194.54 298.66 194.89 303.11"/>
              <polygon class="cls-10" points="215.78 303.11 202.07 303.11 201.36 298.66 214.37 298.66 215.78 303.11"/>
              <polygon class="cls-10" points="236.67 303.11 222.96 303.11 221.19 298.66 234.2 298.66 236.67 303.11"/>
              <polygon class="cls-10" points="257.56 303.11 243.85 303.11 241.01 298.66 254.02 298.66 257.56 303.11"/>
              <polygon class="cls-10" points="278.45 303.11 264.74 303.11 260.84 298.66 273.85 298.66 278.45 303.11"/>
              <polygon class="cls-10" points="299.34 303.11 285.63 303.11 280.66 298.66 293.68 298.66 299.34 303.11"/>
              <polygon class="cls-10" points="81.62 311.01 66.67 311.01 73.38 305.75 87.5 305.75 81.62 311.01"/>
              <polygon class="cls-10" points="104.4 311.01 89.45 311.01 94.9 305.75 109.02 305.75 104.4 311.01"/>
              <polygon class="cls-10" points="240.72 311.01 112.23 311.01 116.42 305.75 237.81 305.75 240.72 311.01"/>
              <polygon class="cls-10" points="263.85 311.01 248.9 311.01 245.54 305.75 259.66 305.75 263.85 311.01"/>
              <polygon class="cls-10" points="286.63 311.01 271.68 311.01 267.06 305.75 281.18 305.75 286.63 311.01"/>
              <polygon class="cls-10" points="309.41 311.01 294.46 311.01 288.58 305.75 302.7 305.75 309.41 311.01"/>
              <polygon class="cls-10" points="127.39 290.59 115.91 290.59 119.08 287.31 130.05 287.31 127.39 290.59"/>
              <polygon class="cls-10" points="143.78 290.59 132.3 290.59 134.75 287.31 145.72 287.31 143.78 290.59"/>
              <polygon class="cls-10" points="160.17 290.59 148.7 290.59 150.42 287.31 161.4 287.31 160.17 290.59"/>
              <polygon class="cls-10" points="176.56 290.59 165.09 290.59 166.1 287.31 177.07 287.31 176.56 290.59"/>
              <polygon class="cls-10" points="192.96 290.59 181.48 290.59 181.77 287.31 192.74 287.31 192.96 290.59"/>
              <polygon class="cls-10" points="209.35 290.59 197.88 290.59 197.44 287.31 208.41 287.31 209.35 290.59"/>
              <polygon class="cls-10" points="226.29 290.59 214.82 290.59 213.64 287.31 224.61 287.31 226.29 290.59"/>
              <polygon class="cls-10" points="252.25 290.59 240.77 290.59 238.46 287.31 249.43 287.31 252.25 290.59"/>
              <polygon class="cls-10" points="267.82 290.59 256.35 290.59 253.35 287.31 264.32 287.31 267.82 290.59"/>
              <polygon class="cls-10" points="283.39 290.59 271.92 290.59 268.24 287.31 279.21 287.31 283.39 290.59"/>
              <polygon class="cls-11" points="227.4 330.95 148.68 330.95 154.89 316.31 221.19 316.31 227.4 330.95"/>
            </g>
            <path class="cls-12" d="M15.42,338H360.66a0,0,0,0,1,0,0v.65a5.12,5.12,0,0,1-5.12,5.12h-335a5.12,5.12,0,0,1-5.12-5.12V338a0,0,0,0,1,0,0Z"/>
          </g>
        </g>
        <g class="cls-13">
          <rect class="cls-14" x="145.05" y="97.43" width="90.75" height="153.76" rx="2.69" ry="2.69"/>
          <rect class="cls-15" x="148.54" y="103.34" width="83.76" height="128.63"/>
          <circle class="cls-15" cx="190.42" cy="241.86" r="5.11"/>
        </g>
        <g>
          <rect class="cls-16" x="34.97" y="122.73" width="59.02" height="59.02" rx="11.43" ry="11.43"/>
          <rect class="cls-17" x="31.47" y="119.23" width="66.01" height="66.01" rx="12.78" ry="12.78"/>
          <g>
            <path class="cls-18" d="M43.32,144.75h5.91c3.31,0,6,1.06,6,4.83s-2.54,4.88-5.89,4.88H46.83v6.21H43.32Zm3.51,6.75h2.34c1.24,0,2.47-.43,2.47-1.91,0-1.64-1.66-1.87-3-1.87h-1.8Z"/>
            <path class="cls-18" d="M57.49,144.75H61v5.94h6.81v-5.94h3.51v15.92H67.81v-6.88H61v6.88H57.49Z"/>
            <path class="cls-18" d="M74.56,144.75h5.91c3.31,0,6,1.06,6,4.83s-2.54,4.88-5.89,4.88H78.07v6.21H74.56Zm3.51,6.75H80.4c1.24,0,2.47-.43,2.47-1.91,0-1.64-1.66-1.87-3-1.87h-1.8Z"/>
          </g>
        </g>
        <g>
          <rect class="cls-19" x="275.83" y="200.81" width="59.02" height="59.02" rx="11.43" ry="11.43"/>
          <rect class="cls-20" x="272.33" y="197.31" width="66.01" height="66.01" rx="12.78" ry="12.78"/>
          <g>
            <path class="cls-18" d="M295.53,224.35a3.93,3.93,0,0,0-3.15-1.36c-2.77,0-4.82,2.26-4.82,5.36s2,5.36,4.7,5.36a4,4,0,0,0,3.43-1.79l3.06,2.28a7.26,7.26,0,0,1-6,2.89c-5.19,0-9-3.41-9-8.74s3.78-8.74,9-8.74a7.14,7.14,0,0,1,5.62,2.44Z"/>
            <path class="cls-18" d="M300.44,228.06h5v-5h3v5h5v3h-5v5h-3v-5h-5Z"/>
            <path class="cls-18" d="M316.09,228.06h5v-5h3v5h5v3h-5v5h-3v-5h-5Z"/>
          </g>
        </g>
        <g>
          <rect class="cls-21" x="258.21" y="137.13" width="41.84" height="41.84" rx="8.1" ry="8.1"/>
          <rect class="cls-22" x="255.73" y="134.66" width="46.8" height="46.8" rx="9.06" ry="9.06"/>
          <g>
            <path class="cls-18" d="M263.63,153.37h1.93v3.27h3.75v-3.27h1.93v8.77h-1.93v-3.79h-3.75v3.79h-1.93Z"/>
            <path class="cls-18" d="M274.73,155.08h-2.5v-1.71h6.94v1.71h-2.5v7.06h-1.93Z"/>
            <path class="cls-18" d="M280.14,153.37h2.92l2,5.72h0l2-5.72h2.91v8.77h-1.93v-6.73h0l-2.3,6.73h-1.47l-2.22-6.73h0v6.73h-1.93Z"/>
            <path class="cls-18" d="M291.92,153.37h1.93v7h3.58v1.78h-5.51Z"/>
          </g>
        </g>
        <g>
          <rect class="cls-23" x="104.43" y="57.03" width="59.02" height="59.02" rx="11.43" ry="11.43"/>
          <rect class="cls-24" x="100.93" y="53.54" width="66.01" height="66.01" rx="12.78" ry="12.78"/>
          <g>
            <path class="cls-18" d="M120.22,88.14c0,2.23-.58,4.34-3.84,4.34a3.39,3.39,0,0,1-3.69-2.81l2.43-.59a1.24,1.24,0,0,0,1.19,1.05c1.24,0,1.26-1.38,1.26-2.28V80.13h2.65Z"/>
            <path class="cls-18" d="M126.46,80.13h2.19l5.24,12h-3l-1-2.55h-4.67l-1,2.55h-2.92Zm1,3.5L126,87.37H129Z"/>
            <path class="cls-18" d="M132.85,80.13h3l3,7.89h0l3-7.89h2.84l-5,12h-2.13Z"/>
            <path class="cls-18" d="M148.92,80.13h2.19l5.24,12h-3l-1-2.55h-4.67l-1,2.55h-2.92Zm1,3.5-1.46,3.74h2.94Z"/>
          </g>
        </g>
        <g>
          <rect class="cls-25" x="75.68" y="213.64" width="43.61" height="43.61" rx="8.44" ry="8.44"/>
          <rect class="cls-26" x="73.09" y="211.06" width="48.77" height="48.77" rx="9.44" ry="9.44"/>
          <g>
            <path class="cls-18" d="M94.59,237.22c0,3.13-.81,6.09-5.39,6.09-2.67,0-4.63-1.24-5.18-3.94l3.41-.84A1.74,1.74,0,0,0,89.1,240c1.74,0,1.77-1.93,1.77-3.2V226h3.72Z"/>
            <path class="cls-18" d="M106.14,230.1a3.6,3.6,0,0,0-2.7-1.12c-1,0-2.51.48-2.51,1.74,0,3.08,7.78,1.1,7.78,7,0,3.77-3,5.56-6.51,5.56a8,8,0,0,1-5.68-2.12l2.65-2.91a4.14,4.14,0,0,0,3.24,1.6c1.22,0,2.58-.57,2.58-1.77,0-3.1-7.92-1.43-7.92-7.06,0-3.6,3.13-5.49,6.44-5.49a7.63,7.63,0,0,1,5.18,1.77Z"/>
          </g>
        </g>
        <circle class="cls-27" cx="337.49" cy="274.7" r="2.64"/>
        <circle class="cls-27" cx="299.34" cy="103.34" r="2.64"/>
        <circle class="cls-23" cx="320.82" cy="167.66" r="1.71"/>
        <circle class="cls-23" cx="59.19" cy="266.68" r="1.71"/>
        <circle class="cls-23" cx="80.54" cy="103.34" r="1.71"/>
        <circle class="cls-23" cx="309.41" cy="280.64" r="1.71"/>
        <circle class="cls-27" cx="124.25" cy="132.02" r="2.64"/>
        <circle class="cls-27" cx="31.47" cy="273.71" r="2.64"/>
        <circle class="cls-27" cx="61.83" cy="103.34" r="2.64"/>
      </g>
    </g>
  </g>
</svg>
